<svg width="33" height="33" viewBox="0 0 33 33" fill="none"
    xmlns="http://www.w3.org/2000/svg">
    <path d="M10.4203 0.378127C8.70026 1.03981 7.67128 2.4709 7.67128 4.20975C7.67128 5.00993 7.74807 5.34847 8.08594 5.90244C8.63883 6.87189 12.0022 10.5189 12.3247 10.5189C12.4783 10.5189 12.678 10.3342 12.7701 10.088C12.8623 9.85717 13.5841 8.28759 14.352 6.5949C15.8724 3.30186 15.9799 2.8556 15.5038 1.83999C14.7666 0.301186 12.4015 -0.391276 10.4203 0.378127Z" fill="#2C619B"/>
    <path d="M20.6487 0.470431C19.3126 0.947461 18.6675 1.85536 16.1642 6.71799C14.4441 10.088 13.8912 11.2882 13.8912 11.7191C13.8912 12.2269 14.0141 12.3962 14.9816 13.3349C16.1949 14.4736 16.6249 14.6736 17.1625 14.3197C17.9457 13.7965 24.995 6.73337 25.379 6.07169C25.7168 5.48694 25.7783 5.20995 25.7629 4.39439C25.7015 2.33239 24.8414 0.978237 23.2749 0.470431C22.292 0.147282 21.5702 0.147282 20.6487 0.470431Z" fill="#6B85E2"/>
    <path d="M27.483 7.05654C27.1451 7.17965 26.8533 7.28736 26.838 7.28736C26.7458 7.28736 24.5189 9.21087 23.3517 10.3034L22.0002 11.5652L23.3056 12.2731C24.0121 12.6578 25.5633 13.4426 26.7305 14.0119C28.6195 14.9198 28.9727 15.0429 29.802 15.0429C30.5853 15.0583 30.8157 14.9968 31.2764 14.6429C31.5989 14.3966 32.0289 13.8273 32.2747 13.3349C32.8429 12.15 32.889 10.4881 32.3515 9.48786C31.2918 7.48741 29.1724 6.42563 27.483 7.05654Z" fill="#2C619B"/>
    <path d="M3.2482 7.19502C1.80455 7.71822 0.959868 8.96465 0.929152 10.5958C0.913794 11.8884 1.3131 12.8271 2.20386 13.6272C3.12533 14.4582 11.6183 18.8284 12.294 18.8284C12.9237 18.8284 15.1199 16.6433 15.1199 16.0124C15.1199 15.6585 14.4288 14.8891 11.265 11.673C6.90338 7.24119 6.53479 6.97959 4.84542 6.97959C4.27718 6.99498 3.57071 7.08731 3.2482 7.19502Z" fill="#6B85E2"/>
    <path d="M19.7119 13.9965C18.6676 15.0122 18.1915 15.6585 18.1915 16.0893C18.1915 16.1816 20.0037 18.1052 22.2306 20.3364C26.7151 24.8605 26.9301 25.0298 28.6656 25.0298C30.5392 25.0298 32.1057 23.8603 32.4129 22.2599C32.7201 20.6288 32.0904 18.9053 30.8925 18.0898C30.1092 17.5512 21.647 13.1656 21.1555 13.0425C20.8791 12.9655 20.5873 13.1502 19.7119 13.9965Z" fill="#6B85E2"/>
    <path d="M2.78746 17.0434C1.98885 17.3358 1.54347 17.782 1.17488 18.6591C0.698786 19.7517 0.59128 21.0751 0.913796 22.1368C1.37453 23.7218 3.17141 25.1375 4.73792 25.1375C6.0587 25.1375 7.14911 24.445 9.79067 21.9214L11.434 20.3518L8.02451 18.6745C6.13549 17.7512 4.32325 16.9665 3.98538 16.9203C3.63215 16.8741 3.12534 16.9203 2.78746 17.0434Z" fill="#2C619B"/>
    <path d="M12.3862 21.629C10.1132 23.9064 8.19345 25.9377 8.00915 26.2916C7.34876 27.5842 7.8095 30.0001 8.91527 30.9696C10.3896 32.2776 13.2462 32.0775 14.4748 30.5849C14.7206 30.2925 15.7803 28.3844 16.8553 26.3378C17.915 24.2758 19.0208 22.183 19.2819 21.6752C19.6658 20.9366 19.758 20.6442 19.6658 20.2903C19.4815 19.5824 17.2853 17.5973 16.671 17.5973C16.5482 17.5973 14.6284 19.4131 12.3862 21.629Z" fill="#6B85E2"/>
    <path d="M19.2972 25.0913C18.4372 26.861 17.7 28.5383 17.6386 28.846C17.5157 29.6 17.9918 30.6618 18.6829 31.185C19.5122 31.8313 20.2494 32.0621 21.3705 32.0621C23.2903 32.0621 25.0564 30.8619 25.6247 29.1692C26.1161 27.7227 25.8551 26.6148 24.7339 25.3529C23.9353 24.445 21.1555 21.906 20.9712 21.906C20.9098 21.906 20.1573 23.3371 19.2972 25.0913Z" fill="#2C619B"/>
</svg>
