<svg width="142" height="33" viewBox="0 0 142 33" fill="none" xmlns="http://www.w3.org/2000/svg">
<g clip-path="url(#clip0_14_13)">
<path d="M10.1046 0.866647C8.43664 1.50828 7.43884 2.896 7.43884 4.58216C7.43884 5.35809 7.51331 5.68637 7.84094 6.22356C8.37707 7.16363 11.6385 10.7001 11.9513 10.7001C12.1002 10.7001 12.2938 10.521 12.3832 10.2823C12.4726 10.0584 13.1725 8.53643 13.9171 6.89503C15.3914 3.70178 15.4957 3.26904 15.034 2.28421C14.3192 0.792037 12.0257 0.120559 10.1046 0.866647Z" fill="#2C619B"/>
<path d="M20.0229 0.956148C18.7273 1.41872 18.1018 2.29911 15.6743 7.01439C14.0064 10.2823 13.4702 11.4461 13.4702 11.8639C13.4702 12.3564 13.5894 12.5205 14.5276 13.4308C15.7041 14.535 16.1211 14.7289 16.6424 14.3857C17.4019 13.8784 24.2375 7.0293 24.6099 6.38767C24.9375 5.82064 24.9971 5.55204 24.9822 4.7612C24.9226 2.76168 24.0886 1.44857 22.5696 0.956148C21.6164 0.642791 20.9165 0.642791 20.0229 0.956148Z" fill="#6B85E2"/>
<path d="M26.6502 7.3427C26.3225 7.46208 26.0395 7.56653 26.0247 7.56653C25.9353 7.56653 23.7759 9.43175 22.644 10.4912L21.3335 11.7147L22.5993 12.4012C23.2844 12.7742 24.7886 13.5352 25.9205 14.0873C27.7522 14.9677 28.0947 15.0871 28.8989 15.0871C29.6584 15.102 29.8819 15.0423 30.3286 14.6992C30.6413 14.4603 31.0583 13.9083 31.2966 13.4308C31.8476 12.2818 31.8923 10.6703 31.3711 9.70035C30.3435 7.76052 28.2884 6.73091 26.6502 7.3427Z" fill="#2C619B"/>
<path d="M3.14982 7.47697C1.74992 7.98431 0.930833 9.19297 0.901048 10.7747C0.886155 12.0281 1.27336 12.9384 2.13713 13.7142C3.03068 14.5201 11.2663 18.7578 11.9215 18.7578C12.5321 18.7578 14.6618 16.6389 14.6618 16.0272C14.6618 15.684 13.9916 14.9379 10.9237 11.8193C6.69424 7.52174 6.33682 7.26807 4.69864 7.26807C4.14762 7.28299 3.46256 7.37252 3.14982 7.47697Z" fill="#6B85E2"/>
<path d="M19.1146 14.0723C18.1019 15.0573 17.6403 15.684 17.6403 16.1017C17.6403 16.1912 19.3975 18.0565 21.557 20.2201C25.9056 24.6071 26.1141 24.7713 27.797 24.7713C29.6138 24.7713 31.1328 23.6372 31.4307 22.0853C31.7286 20.5037 31.118 18.8324 29.9564 18.0416C29.1968 17.5193 20.991 13.2666 20.5144 13.1472C20.2464 13.0726 19.9635 13.2517 19.1146 14.0723Z" fill="#6B85E2"/>
<path d="M2.70299 17.0269C1.92858 17.3105 1.49669 17.7431 1.13927 18.5937C0.677607 19.6531 0.573359 20.9364 0.886102 21.966C1.33287 23.5029 3.0753 24.8757 4.59434 24.8757C5.8751 24.8757 6.93247 24.2042 9.49398 21.7571L11.0875 20.2351L7.78134 18.6086C5.94956 17.7133 4.19224 16.9523 3.86461 16.9075C3.52208 16.8627 3.03063 16.9075 2.70299 17.0269Z" fill="#2C619B"/>
<path d="M12.0108 21.4736C9.80672 23.6819 7.94514 25.6517 7.76643 25.9949C7.12605 27.2483 7.57283 29.591 8.64509 30.5311C10.0747 31.7995 12.8448 31.6054 14.0362 30.1581C14.2745 29.8745 15.3021 28.0242 16.3445 26.0397C17.3721 24.0401 18.4444 22.0108 18.6976 21.5184C19.0698 20.8021 19.1593 20.5186 19.0698 20.1754C18.8911 19.489 16.7615 17.564 16.1658 17.564C16.0467 17.564 14.1851 19.3248 12.0108 21.4736Z" fill="#6B85E2"/>
<path d="M18.7124 24.831C17.8785 26.547 17.1636 28.1735 17.1041 28.4719C16.9849 29.203 17.4466 30.2327 18.1167 30.74C18.9209 31.3667 19.6358 31.5905 20.7229 31.5905C22.5845 31.5905 24.2971 30.4267 24.8482 28.7853C25.3247 27.3826 25.0716 26.3083 23.9844 25.0846C23.21 24.2042 20.5144 21.7422 20.3357 21.7422C20.2762 21.7422 19.5465 23.1299 18.7124 24.831Z" fill="#2C619B"/>
</g>
<path d="M41.456 26V7.28H45.226L52.012 15.366L58.772 7.28H62.568V26H59.11V12.272L52.012 20.722L44.888 12.298V26H41.456ZM65.6031 26V7.254H69.0351V22.542H84.3231V26H65.6031ZM89.4008 26C88.7421 26 88.1355 25.8353 87.5808 25.506C87.0435 25.1767 86.6101 24.7433 86.2808 24.206C85.9515 23.6513 85.7868 23.0447 85.7868 22.386V10.894C85.7868 10.2353 85.9515 9.63733 86.2808 9.1C86.6101 8.54533 87.0435 8.10333 87.5808 7.774C88.1355 7.44467 88.7421 7.28 89.4008 7.28H100.893C101.551 7.28 102.149 7.44467 102.687 7.774C103.241 8.10333 103.683 8.54533 104.013 9.1C104.342 9.63733 104.507 10.2353 104.507 10.894V22.386C104.507 23.0447 104.342 23.6513 104.013 24.206C103.683 24.7433 103.241 25.1767 102.687 25.506C102.149 25.8353 101.551 26 100.893 26H89.4008ZM89.5308 22.542H100.711C100.797 22.542 100.875 22.516 100.945 22.464C101.014 22.3947 101.049 22.3167 101.049 22.23V11.05C101.049 10.9633 101.014 10.894 100.945 10.842C100.875 10.7727 100.797 10.738 100.711 10.738H89.5308C89.4441 10.738 89.3661 10.7727 89.2968 10.842C89.2448 10.894 89.2188 10.9633 89.2188 11.05V22.23C89.2188 22.3167 89.2448 22.3947 89.2968 22.464C89.3661 22.516 89.4441 22.542 89.5308 22.542ZM107.318 31.98V10.92H119.044C119.703 10.92 120.301 11.0847 120.838 11.414C121.393 11.7433 121.826 12.1767 122.138 12.714C122.467 13.2513 122.632 13.8493 122.632 14.508V22.412C122.632 23.0707 122.467 23.6687 122.138 24.206C121.826 24.7433 121.393 25.1767 120.838 25.506C120.301 25.8353 119.703 26 119.044 26H110.724V31.98H107.318ZM111.036 22.594H118.914C119.001 22.594 119.07 22.568 119.122 22.516C119.191 22.4467 119.226 22.3687 119.226 22.282V14.638C119.226 14.5513 119.191 14.482 119.122 14.43C119.07 14.3607 119.001 14.326 118.914 14.326H111.036C110.949 14.326 110.871 14.3607 110.802 14.43C110.75 14.482 110.724 14.5513 110.724 14.638V22.282C110.724 22.3687 110.75 22.4467 110.802 22.516C110.871 22.568 110.949 22.594 111.036 22.594ZM128.092 26C127.433 26 126.835 25.8353 126.298 25.506C125.761 25.1767 125.327 24.7433 124.998 24.206C124.669 23.6687 124.504 23.0707 124.504 22.412V21.84H127.91V22.282C127.91 22.3687 127.936 22.4467 127.988 22.516C128.057 22.568 128.135 22.594 128.222 22.594H136.1C136.187 22.594 136.256 22.568 136.308 22.516C136.377 22.4467 136.412 22.3687 136.412 22.282V20.488C136.412 20.4013 136.377 20.332 136.308 20.28C136.256 20.2107 136.187 20.176 136.1 20.176H128.092C127.433 20.176 126.835 20.0113 126.298 19.682C125.761 19.3527 125.327 18.9193 124.998 18.382C124.669 17.8447 124.504 17.2467 124.504 16.588V14.508C124.504 13.8493 124.669 13.2513 124.998 12.714C125.327 12.1767 125.761 11.7433 126.298 11.414C126.835 11.0847 127.433 10.92 128.092 10.92H136.23C136.906 10.92 137.513 11.0847 138.05 11.414C138.587 11.7433 139.021 12.1767 139.35 12.714C139.679 13.2513 139.844 13.8493 139.844 14.508V15.08H136.412V14.638C136.412 14.5513 136.377 14.482 136.308 14.43C136.256 14.3607 136.187 14.326 136.1 14.326H128.222C128.135 14.326 128.057 14.3607 127.988 14.43C127.936 14.482 127.91 14.5513 127.91 14.638V16.432C127.91 16.5187 127.936 16.5967 127.988 16.666C128.057 16.718 128.135 16.744 128.222 16.744H136.23C136.906 16.744 137.513 16.9087 138.05 17.238C138.587 17.5673 139.021 18.0007 139.35 18.538C139.679 19.0753 139.844 19.6733 139.844 20.332V22.412C139.844 23.0707 139.679 23.6687 139.35 24.206C139.021 24.7433 138.587 25.1767 138.05 25.506C137.513 25.8353 136.906 26 136.23 26H128.092Z" fill="#012970"/>
<defs>
<clipPath id="clip0_14_13">
<rect width="32" height="32" fill="white" transform="translate(0 0.5)"/>
</clipPath>
</defs>
</svg>
